Coordinates
version=1
nRows=9
nColumns=63
inDegrees=yes

Units are S.I. units (second, meters, Newtons, ...)
If the header above contains a line with 'inDegrees', this indicates whether rotational values are in degrees (yes) or radians (no).

endheader
time	pelvis_tilt	pelvis_list	pelvis_rotation	pelvis_tx	pelvis_ty	pelvis_tz	hip_flexion_r	hip_adduction_r	hip_rotation_r	knee_angle_r	knee_angle_r_beta	ankle_angle_r	subtalar_angle_r	mtp_angle_r	hip_flexion_l	hip_adduction_l	hip_rotation_l	knee_angle_l	knee_angle_l_beta	ankle_angle_l	subtalar_angle_l	mtp_angle_l	L5_S1_Flex_Ext	L5_S1_Lat_Bending	L5_S1_axial_rotation	L4_L5_Flex_Ext	L4_L5_Lat_Bending	L4_L5_axial_rotation	L3_L4_Flex_Ext	L3_L4_Lat_Bending	L3_L4_axial_rotation	L2_L3_Flex_Ext	L2_L3_Lat_Bending	L2_L3_axial_rotation	L1_L2_Flex_Ext	L1_L2_Lat_Bending	L1_L2_axial_rotation	L1_T12_Flex_Ext	L1_T12_Lat_Bending	L1_T12_axial_rotation	Abs_r3	Abs_r2	Abs_r1	Abs_t1	Abs_t2	neck_flexion	neck_bending	neck_rotation	arm_flex_r	arm_add_r	arm_rot_r	elbow_flex_r	pro_sup_r	wrist_flex_r	wrist_dev_r	arm_flex_l	arm_add_l	arm_rot_l	elbow_flex_l	pro_sup_l	wrist_flex_l	wrist_dev_l
      1.28571429	      3.49814212	     11.42608231	     90.99122783	      0.22851500	      1.14288713	      0.52158257	     -9.87903844	      2.65914067	     -4.41560912	      8.86965254	      0.15480464	     18.62918387	     17.67324423	      0.00000000	     -8.83068064	     -6.02643457	     -8.12946730	     10.37828390	      0.18113522	     15.76513878	      6.05400948	      0.00000000	     -1.44001224	      1.61712906	     12.26081324	     -2.67424673	      2.15078164	     13.02711406	     -2.36579611	      3.93188759	     13.02711406	     -1.64578999	      3.93188759	     10.72821158	     -1.33719536	      3.29764957	      9.96191076	     -0.82282299	      2.50493291	      9.19560993	    -10.28586342	     18.29328731	     68.19096498	      0.00000000	      0.00000000	      0.69338014	     -4.61040983	    -44.59668872	    -29.37645974	      0.42620727	    -99.76933045	    143.04796828	     73.76064207	     34.92907987	    -22.58948345	     68.27242355	     42.89910299	    186.49121021	      0.03561631	      0.70650340	    -69.93280081	    -24.78484369
      1.30612245	      3.59694588	     12.76207263	     92.28184717	      0.22787507	      1.14415224	      0.52567747	    -11.05388871	      3.11730422	     -5.72324591	      8.89882091	      0.15531372	     18.50177814	     17.61879693	      0.00000000	     -9.51084298	     -6.62120671	     -8.63292790	     10.91828184	      0.19055997	     16.38216574	      8.10274847	      0.00000000	     -1.47839880	      1.75720857	     12.50388327	     -2.74553441	      2.33708740	     13.28537598	     -2.42886139	      4.27247693	     13.28537598	     -1.68966199	      4.27247693	     10.94089786	     -1.37284112	      3.58329972	     10.15940516	     -0.84475707	      2.72191608	      9.37791245	    -10.56005478	     19.87789483	     69.54284759	      0.00000000	      0.00000000	      0.98774656	     -2.98703152	    -44.67420950	    -28.19440526	     -1.73687828	   -110.93976942	    146.62267253	     70.71249712	     57.64714035	    -20.57600943	     69.10011810	     45.29622641	    185.72218617	      0.03385956	      0.64507191	    -69.94036217	    -24.79049215
      1.32653061	      3.83949103	     14.34624687	     93.73778878	      0.22614827	      1.14580283	      0.53087798	    -12.38920011	      3.76592392	     -7.34549759	      8.96160473	      0.15640951	     18.19860295	     17.60280608	      0.00000000	    -10.31289314	     -7.34952644	     -8.20805935	     11.52786698	      0.20119923	     16.77926419	      9.14918503	      0.00000000	     -1.52958586	      1.91782912	     12.64334516	     -2.84059391	      2.55071272	     13.43355424	     -2.51295661	      4.66300971	     13.43355424	     -1.74816368	      4.66300971	     11.06292702	     -1.42037343	      3.91083713	     10.27271795	     -0.87400536	      2.97071730	      9.48250887	    -10.92567886	     21.69486652	     70.31849280	      0.00000000	      0.00000000	      1.74446461	     -1.02458301	    -44.72934922	    -27.84369038	     -4.57943003	   -119.28116961	    149.61755231	     65.94726624	     68.36750971	    -20.98368829	     69.53736953	     47.56570715	    185.09063920	      0.03247663	      0.59180642	    -69.94604701	    -24.79425600
      1.34693878	      4.85763598	     16.56587905	     94.58916435	      0.22181061	      1.14794445	      0.53809678	    -14.17127605	      4.98507338	     -8.39769406	      9.09940408	      0.15881456	     17.47870295	     17.72544136	      0.00000000	    -11.71135149	     -8.64725525	     -7.63975951	     12.21779111	      0.21324068	     17.28082937	      9.37265826	      0.00000000	     -1.61721850	      2.17371762	     12.76859787	     -3.00333648	      2.89104444	     13.56663524	     -2.65692827	      5.28517703	     13.56663524	     -1.84831902	      5.28517703	     11.17252314	     -1.50174910	      4.43264498	     10.37448577	     -0.92407865	      3.36708860	      9.57644841	    -11.55163003	     24.58952852	     71.01511080	      0.00000000	      0.00000000	      3.79429947	      1.14119741	    -44.77908751	    -27.97057284	     -7.88931413	   -126.72154942	    149.89577445	     60.08228142	     69.42397645	    -23.00184380	     69.74289764	     50.22442441	    184.42785290	      0.03162758	      0.55967328	    -69.94966141	    -24.79744727
      1.36734694	      5.81626205	     18.28713233	     94.99882249	      0.21785308	      1.14954945	      0.54333635	    -15.51839933	      6.01800282	     -9.13544430	      9.25394156	      0.16151175	     16.86078860	     17.87848693	      0.00000000	    -12.87729381	     -9.73467481	     -7.18147985	     12.70921570	      0.22181766	     17.70987742	      9.25379375	      0.00000000	     -1.66335524	      2.39461549	     12.96570487	     -3.08901703	      3.18483860	     13.77606143	     -2.73272633	      5.82226811	     13.77606143	     -1.90104871	      5.82226811	     11.34499176	     -1.54459168	      4.88309991	     10.53463521	     -0.95044119	      3.70925940	      9.72427865	    -11.88118018	     27.08836937	     72.11136079	      0.00000000	      0.00000000	      5.82988051	      2.53305248	    -44.81152166	    -28.06121919	    -11.13545837	   -135.33921901	    149.93158278	     54.48582848	     69.57681496	    -23.47474434	     69.54141391	     52.64086677	    184.56806010	      0.03094761	      0.53820230	    -69.95206078	    -24.79993976
      1.38775510	      6.35541987	     19.20747280	     95.15806834	      0.21542614	      1.15060127	      0.54570671	    -16.22902824	      6.56253763	     -9.53157320	      9.38598891	      0.16381641	     16.49940434	     17.97267570	      0.00000000	    -13.59546485	    -10.29872007	     -6.89305589	     12.87904755	      0.22478178	     18.01195733	      9.14045340	      0.00000000	     -1.66856556	      2.50255009	     13.11816950	     -3.09869311	      3.32839162	     13.93805509	     -2.74128636	      6.08470029	     13.93805509	     -1.90700358	      6.08470029	     11.47839831	     -1.54942998	      5.10320014	     10.65851272	     -0.95341836	      3.87645009	      9.83862712	    -11.91839696	     28.30934712	     72.95932330	      0.00000000	      0.00000000	      7.31178493	      3.45805214	    -44.82956022	    -28.26346183	    -13.69606396	   -141.14212271	    149.94008253	     51.00175188	     69.56897904	    -23.66583758	     69.09692356	     54.13869155	    185.29190015	      0.03066483	      0.52611456	    -69.95316383	    -24.80084060
      1.40816327	      6.39755607	     19.28727952	     95.16714972	      0.21415741	      1.15093304	      0.54557702	    -16.26584736	      6.53842046	     -9.58670788	      9.44352867	      0.16482067	     16.40786434	     17.93225490	      0.00000000	    -13.74593431	    -10.25808278	     -6.86939357	     12.80952249	      0.22356834	     18.26555918	      9.14318973	      0.00000000	     -1.63216231	      2.47597837	     13.10736754	     -3.03108863	      3.29305123	     13.92657801	     -2.68147947	      6.02009381	     13.92657801	     -1.86539831	      6.02009381	     11.46894660	     -1.51562593	      5.04901509	     10.64973613	     -0.93261755	      3.83529050	      9.83052565	    -11.65837220	     28.00876252	     72.89924604	      0.00000000	      0.00000000	      7.35363520	      4.14669280	    -44.83883135	    -28.27668615	    -15.28639827	   -141.73573712	    149.94111309	     50.27583524	     69.45876235	    -23.92258837	     68.62453821	     54.37276326	    185.53402182	      0.03061969	      0.54114383	    -69.95315240	    -24.80221143
      1.42857143	      6.40141908	     19.14748392	     95.22975302	      0.21363679	      1.15058332	      0.54360138	    -16.22983745	      6.53988139	     -9.67430724	      9.42386831	      0.16447753	     16.49974875	     17.87796525	      0.00000000	    -13.80831599	    -10.21744655	     -6.78369516	     12.62672120	      0.22037786	     18.73886672	      9.19435306	      0.00000000	     -1.58121082	      2.43552902	     13.10108709	     -2.93646662	      3.23925360	     13.91990504	     -2.59777126	      5.92174526	     13.91990504	     -1.80716585	      5.92174526	     11.46345121	     -1.46831237	      4.96653078	     10.64463326	     -0.90350386	      3.77263445	      9.82581532	    -11.29443078	     27.55119140	     72.86431609	      0.00000000	      0.00000000	      7.51632094	      4.32604279	    -44.84298166	    -28.40371659	    -15.99861645	   -141.91804132	    149.93723213	     50.15432103	     69.12478927	    -23.65433475	     68.70263066	     54.31589623	    185.57576324	      0.03083272	      0.54976605	    -69.95252464	    -24.79926797
      1.44897959	      6.32547028	     18.91084734	     95.36569714	      0.21340904	      1.14978360	      0.54102460	    -16.14359664	      6.49899307	     -9.74997594	      9.39805049	      0.16402692	     16.82101500	     17.82728985	      0.00000000	    -13.80842082	    -10.12430812	     -6.64648787	     12.41472215	      0.21667778	     19.27595604	      9.30709763	      0.00000000	     -1.52880480	      2.38514661	     13.07117815	     -2.83914340	      3.17224499	     13.88812679	     -2.51167341	      5.79924547	     13.88812679	     -1.74727101	      5.79924547	     11.43728089	     -1.41964814	      4.86379097	     10.62033225	     -0.87355906	      3.69459210	      9.80338362	    -10.92009981	     26.98125549	     72.69797154	      0.00000000	      0.00000000	      7.59370294	      4.20659078	    -44.84471507	    -28.42693505	    -16.11732717	   -141.79476494	    149.93217468	     50.49769232	     68.44599357	    -23.13558975	     69.05819345	     54.03439064	    185.31005357	      0.03098344	      0.53967585	    -69.95185252	    -24.79461895
